<svg width="99" height="44" viewBox="0 0 99 44" fill="none" xmlns="http://www.w3.org/2000/svg">
<g clip-path="url(#clip0_1_2)">
<path d="M3.5 3.10001H94.8V40H3.5V3.10001ZM0 43.2H98.4V0H0V43.2Z" fill="white"/>
<path d="M27.2 26.7C27.3 26.7 27.4 26.7 27.6 26.8C27.8 26.9 27.8 26.9 27.9 27L29.9 29.1C29 30.2 28 31.1 26.7 31.7C25.4 32.3 23.9 32.6 22.1 32.6C20.5 32.6 19 32.3 17.7 31.8C16.4 31.2 15.3 30.5 14.4 29.5C13.5 28.5 12.8 27.4 12.3 26C11.8 24.7 11.6 23.2 11.6 21.6C11.6 20 11.9 18.5 12.4 17.2C12.9 15.9 13.6 14.7 14.6 13.7C15.5 12.7 16.7 12 18 11.4C19.3 10.9 20.8 10.6 22.3 10.6C23.1 10.6 23.9 10.7 24.6 10.8C25.3 10.9 26 11.1 26.6 11.4C27.2 11.7 27.8 12 28.3 12.3C28.8 12.7 29.3 13 29.7 13.4L28 15.7C27.9 15.8 27.8 16 27.6 16.1C27.5 16.2 27.2 16.3 27 16.3C26.8 16.3 26.7 16.3 26.5 16.2C26.3 16.1 26.2 16 26 15.9C25.8 15.8 25.6 15.7 25.4 15.5C25.2 15.4 24.9 15.2 24.6 15.1C24.3 15 24 14.9 23.6 14.8C23.2 14.7 22.8 14.7 22.2 14.7C21.4 14.7 20.6 14.9 19.9 15.2C19.2 15.5 18.6 15.9 18.1 16.5C17.6 17.1 17.2 17.8 17 18.6C16.7 19.4 16.6 20.4 16.6 21.5C16.6 22.6 16.7 23.6 17 24.4C17.3 25.3 17.7 26 18.2 26.6C18.7 27.2 19.3 27.6 20 27.9C20.7 28.2 21.4 28.4 22.2 28.4C22.7 28.4 23.1 28.4 23.4 28.3C23.8 28.3 24.1 28.2 24.4 28.1C24.7 28 25 27.9 25.3 27.7C25.6 27.5 25.9 27.3 26.2 27C26.3 26.9 26.4 26.8 26.6 26.8C26.9 26.7 27.1 26.7 27.2 26.7Z" fill="white"/>
<path d="M40.5 14.6V20.1H47.8V23.9H40.5V32.2H35.5V10.8H49.3V14.6H40.5Z" fill="white"/>
<path d="M60.6 10.8H55.6V32.2H60.6V10.8Z" fill="white"/>
<path d="M79.5 24L77.5 18.1C77.4 17.7 77.2 17.3 77 16.8C76.8 16.3 76.7 15.7 76.5 15.2C76.4 15.8 76.2 16.4 76 16.9C75.8 17.4 75.7 17.9 75.5 18.2L73.5 24H79.5ZM87.4 32.2H83.5C83.1 32.2 82.7 32.1 82.5 31.9C82.2 31.7 82 31.4 81.9 31.1L80.6 27.4H72.5L71.2 31.1C71.1 31.4 70.9 31.6 70.6 31.8C70.3 32 70 32.1 69.6 32.1H65.7L74 10.8H79.1L87.4 32.2Z" fill="white"/>
</g>
<defs>
<clipPath id="clip0_1_2">
<rect width="99" height="44" fill="white"/>
</clipPath>
</defs>
</svg>
