<svg width="100%" version="1.1" id="Layer_1" xmlns="http://www.w3.org/2000/svg"
     xmlns:xlink="http://www.w3.org/1999/xlink"
     x="0px" y="0px"
	 viewBox="41 799.9 59.7 42" style="enable-background:new 41 799.9 59.7 42;" xml:space="preserve">
<path d="M97.6,840.4c0,0-1.5-1-2.6-2.5c-0.5-0.7-0.8-1.3-0.9-1.6c4.1-2.3,6.6-5.8,6.6-9.6c0-5.8-5.5-10.6-13.2-11.8
	c-1.3-8.4-11.2-15-23.2-15c-12.8,0-23.3,7.6-23.3,16.9c0,5.4,3.5,10.4,9.5,13.6c-0.2,0.5-0.5,1.4-1.5,2.7c-1.7,2.2-3.8,3.7-3.8,3.7
	c-0.3,0.2-0.4,0.5-0.3,0.8c0.1,0.3,0.3,0.5,0.6,0.6c0.4,0.1,0.9,0.1,1.4,0.1c4.9,0,10.8-4.1,12.1-5c1.7,0.3,3.5,0.4,5.3,0.4
	c2.1,0,4.1-0.2,6-0.6c3,3.5,8.3,5.6,13.9,5.6c1.2,0,2.4-0.1,3.6-0.3c1.1,0.8,5.1,3.5,8.5,3.5c0.3,0,0.7,0,1-0.1s0.5-0.3,0.6-0.6
	C97.9,840.9,97.8,840.6,97.6,840.4z M64.2,832.1c-1.8,0-3.6-0.2-5.3-0.5c-0.2,0-0.4,0-0.6,0.1c-0.1,0-5.8,4.4-10.6,4.9
	c0.8-0.7,1.7-1.6,2.5-2.7c1.7-2.3,1.9-3.8,1.9-3.9c0-0.3-0.1-0.6-0.4-0.7c-5.8-2.9-9.2-7.6-9.2-12.5c0-8.5,9.8-15.4,21.8-15.4
	s21.8,6.9,21.8,15.4C86.1,825.2,76.3,832.1,64.2,832.1z M88.4,837c-0.2-0.1-0.4-0.2-0.6-0.1c-1.2,0.2-2.4,0.3-3.7,0.3
	c-4.9,0-9.4-1.7-12.2-4.5c9.1-2.3,15.6-8.6,15.6-15.9c0-0.1,0-0.2,0-0.3c6.8,1.1,11.6,5.3,11.6,10.2c0,3.4-2.4,6.6-6.3,8.5
	c-0.3,0.1-0.4,0.4-0.4,0.7c0,0.1,0.1,1.2,1.3,2.9c0.4,0.6,0.9,1,1.3,1.5C91.9,839.6,88.5,837,88.4,837z"/>
</svg>
