<svg width="100%" version="1.1" id="Layer_1" xmlns="http://www.w3.org/2000/svg" xmlns:xlink="http://www.w3.org/1999/xlink" x="0px" y="0px"
	 viewBox="253.1 376.3 89 89.1" style="enable-background:new 253.1 376.3 89 89.1;" xml:space="preserve">
<g>
	<path d="M330,465.4h-23.7c-1.6,0-2.8-1.3-2.8-2.8v-23.4h-11.8v23.4c0,1.6-1.3,2.8-2.8,2.8h-23.7c-1.6,0-2.8-1.3-2.8-2.8v-37.8h-6.5
		c-1.1,0-2.2-0.7-2.6-1.7c-0.4-1.1-0.2-2.3,0.6-3.1l41.5-42.8c0.5-0.5,1.3-0.9,2-0.9c0.8,0,1.5,0.3,2,0.9l18.4,18.8
		c0.4-1.1,1.4-1.9,2.7-1.9h9.5c1.6,0,2.8,1.3,2.8,2.8v14.3l8.5,8.6c0.8,0.8,1,2,0.6,3.1s-1.5,1.7-2.6,1.7h-6.4v37.8
		C332.9,464.2,331.6,465.4,330,465.4z M307.3,461.6H329V421h7.9l-7.8-8.1V398h-7.5v7.2l-24.1-24.6L258.2,421h7.9v40.6h21.7v-26.2
		h19.5V461.6z"/>
</g>
</svg>
