<svg width="100%" version="1.1"
	 id="svg2" xmlns:rdf="http://www.w3.org/1999/02/22-rdf-syntax-ns#" xmlns:inkscape="http://www.inkscape.org/namespaces/inkscape" xmlns:sodipodi="http://sodipodi.sourceforge.net/DTD/sodipodi-0.dtd" xmlns:svg="http://www.w3.org/2000/svg" xmlns:dc="http://purl.org/dc/elements/1.1/" xmlns:cc="http://creativecommons.org/ns#"
	 xmlns="http://www.w3.org/2000/svg" xmlns:xlink="http://www.w3.org/1999/xlink" x="0px" y="0px"
	 viewBox="-17.2 324.9 286.6 286.2" style="enable-background:new -17.2 324.9 286.6 286.2;" xml:space="preserve">
<g id="layer1" transform="translate(0,-552.36218)">
	<path id="rect2995" d="M17.5,877.3c-19.2,0-34.7,15.5-34.7,34.7s15.5,34.8,34.7,34.8s34.7-15.6,34.7-34.8
		C52.2,892.9,36.7,877.3,17.5,877.3z M199.4,967.8c-3.9,0-7.7,0.1-12.7,0.4c-10.9,0.6-36.4,12.4-45.8,31.2c0-8.2,0.1-15.7,0.1-26.9
		c-11.2,0-25.8,0.1-56.4,0.1c0,34.3-0.4,155.6-0.4,190.9h59.2c0-21,0.3-73.6,0.3-106.7c0-11.1,6.7-36.8,34.3-36.8
		c25.1,0,32.1,21.1,32.1,36.8c0,34.4-0.2,83.1-0.2,106.7h59.5c0-23,0.2-85.6-0.5-125.1c-0.9-48-30-68.4-56.2-70
		C207.3,968,203.3,967.8,199.4,967.8z M-12.2,973.3v190.1h59.3V973.3H-12.2z"/>
</g>
</svg>
