<svg width="100%" version="1.1" id="Layer_1" xmlns="http://www.w3.org/2000/svg" xmlns:xlink="http://www.w3.org/1999/xlink" x="0px" y="0px"
	 viewBox="261.1 386.9 65.8 75" style="enable-background:new 261.1 386.9 65.8 75;" xml:space="preserve">
<g>
	<path d="M277.5,461.9c-9,0-16.4-7.3-16.4-16.4c0-9,7.3-16.4,16.4-16.4c9,0,16.4,7.3,16.4,16.4C293.8,454.5,286.5,461.9,277.5,461.9
		z M277.5,430.5c-8.2,0-15,6.7-15,15c0,8.2,6.7,15,15,15s15-6.7,15-15C292.4,437.2,285.7,430.5,277.5,430.5z"/>
	<path d="M312.5,437.5c-8,0-14.5-6.5-14.5-14.5s6.5-14.5,14.5-14.5c8,0,14.5,6.5,14.5,14.5S320.4,437.5,312.5,437.5z M312.5,409.9
		c-7.2,0-13,5.8-13,13c0,7.2,5.8,13,13,13c7.2,0,13-5.8,13-13C325.5,415.8,319.6,409.9,312.5,409.9z"/>
	<path d="M290.7,409.1c-6.1,0-11.1-5-11.1-11.1s5-11.1,11.1-11.1s11.1,5,11.1,11.1S296.8,409.1,290.7,409.1z M290.7,388.3
		c-5.3,0-9.7,4.3-9.7,9.7s4.3,9.7,9.7,9.7c5.3,0,9.7-4.3,9.7-9.7S296,388.3,290.7,388.3z"/>
	<g>
		<g>
			<g>
				<circle cx="290.7" cy="393.5" r="3.2"/>
				<path d="M290.7,397.2c-2.1,0-3.7-1.7-3.7-3.7s1.7-3.7,3.7-3.7c2.1,0,3.7,1.7,3.7,3.7C294.4,395.6,292.7,397.2,290.7,397.2z
					 M290.7,390.8c-1.5,0-2.7,1.2-2.7,2.7s1.2,2.7,2.7,2.7s2.7-1.2,2.7-2.7C293.3,392,292.1,390.8,290.7,390.8z"/>
			</g>
			<g>
				<path d="M295.1,403.1c0,2-8.9,2-8.9,0c0-2.9,2-5.1,4.4-5.1S295.1,400.2,295.1,403.1z"/>
				<path d="M290.7,405.1c-2.4,0-5-0.5-5-2c0-3.2,2.2-5.6,5-5.6s5,2.5,5,5.6C295.7,404.6,293.1,405.1,290.7,405.1z M290.7,398.5
					c-2.2,0-3.9,2-3.9,4.6c0,0.3,1.3,1,3.9,1c2.6,0,3.9-0.6,3.9-1C294.6,400.5,292.9,398.5,290.7,398.5z"/>
			</g>
		</g>
	</g>
	<g>
		<g>
			<g>
				<circle cx="312.5" cy="417.6" r="4.7"/>
				<path d="M312.5,422.8c-2.9,0-5.3-2.4-5.3-5.3s2.4-5.3,5.3-5.3c2.9,0,5.3,2.4,5.3,5.3C317.8,420.5,315.4,422.8,312.5,422.8z
					 M312.5,413.4c-2.3,0-4.2,1.9-4.2,4.2c0,2.3,1.9,4.2,4.2,4.2c2.3,0,4.2-1.9,4.2-4.2C316.7,415.3,314.8,413.4,312.5,413.4z"/>
			</g>
			<g>
				<path d="M319.1,431.4c0,3-13.1,3-13.1,0c0-4.2,2.9-7.5,6.5-7.5C316.1,423.8,319.1,427.1,319.1,431.4z"/>
				<path d="M312.5,434.1c-3.3,0-7.1-0.7-7.1-2.8c0-4.5,3.1-8,7.1-8c4,0,7.1,3.5,7.1,8C319.6,433.4,315.8,434.1,312.5,434.1z
					 M312.5,424.4c-3.4,0-6,3.1-6,7c0,0.8,2.4,1.7,6,1.7s6-0.9,6-1.7C318.5,427.4,315.9,424.4,312.5,424.4z"/>
			</g>
		</g>
	</g>
	<g>
		<g>
			<g>
				<circle cx="277.6" cy="438.6" r="5.7"/>
				<path d="M277.6,444.8c-3.5,0-6.3-2.8-6.3-6.3s2.8-6.3,6.3-6.3s6.3,2.8,6.3,6.3S281.1,444.8,277.6,444.8z M277.6,433.4
					c-2.9,0-5.2,2.3-5.2,5.2s2.3,5.2,5.2,5.2s5.2-2.3,5.2-5.2C282.8,435.7,280.5,433.4,277.6,433.4z"/>
			</g>
			<g>
				<path d="M285.6,455c0,3.6-15.9,3.6-15.9,0c0-5.1,3.6-9.1,8-9.1S285.6,449.9,285.6,455z"/>
				<path d="M277.6,458.2c-3.9,0-8.5-0.8-8.5-3.2c0-5.4,3.7-9.7,8.5-9.7c4.8,0,8.5,4.2,8.5,9.7C286.1,457.4,281.5,458.2,277.6,458.2
					z M277.6,446.4c-4.2,0-7.4,3.8-7.4,8.6c0,1.2,3.3,2.2,7.4,2.2s7.4-1,7.4-2.2C285,450.2,281.8,446.4,277.6,446.4z"/>
			</g>
		</g>
	</g>
	<path d="M303.3,413.1c-0.1,0-0.3-0.1-0.4-0.2l-5.9-6.6c-0.2-0.2-0.2-0.6,0-0.8c0.2-0.2,0.6-0.2,0.8,0l5.9,6.6
		c0.2,0.2,0.2,0.6,0,0.8C303.5,413.1,303.4,413.1,303.3,413.1z"/>
	<path d="M291.4,438.9c-0.2,0-0.4-0.1-0.5-0.3c-0.1-0.3,0-0.6,0.2-0.7l11.2-5.9c0.3-0.1,0.6,0,0.7,0.2c0.1,0.3,0,0.6-0.2,0.7
		l-11.2,5.9C291.6,438.9,291.5,438.9,291.4,438.9z"/>
</g>
</svg>
