<svg width="100%" version="1.1" id="Layer_1" xmlns="http://www.w3.org/2000/svg" xmlns:xlink="http://www.w3.org/1999/xlink" x="0px" y="0px"
	 viewBox="256.2 376.3 85.5 89.4" style="enable-background:new 256.2 376.3 85.5 89.4;" xml:space="preserve">
<g>
	<path d="M263.9,443.8l-7.7,7.7l6.4,14.2l11.7-11.7l2.4,1.2l62.2-62.2c4.1-4.1,3.6-9.3-0.5-13.4c-4.1-4.1-9.3-4.5-13.3-0.5
		l-62.3,62.3L263.9,443.8z M263,463.4l-5.1-11.7l3.7-3.7l5.3,11.5L263,463.4z M267.9,458.5l-5.3-11.5l1.9-1.9l2.3,5.1l6.2,3.1
		L267.9,458.5z M325.9,380.2c3.6-3.6,7.9-3.1,11.4,0.5s4.1,7.9,0.5,11.5l-61.4,61.4l-8.5-4.3l-3.4-7.6L325.9,380.2z"/>
	<path d="M275.9,445.6L275.9,445.6c0.6-0.6,1.1-0.7,1.7-0.9c0.7-0.1,1.4-0.3,2.3-1.2c0.9-0.9,1-1.6,1.2-2.3c0.1-0.6,0.2-1,0.8-1.6
		c0.6-0.6,1-0.7,1.6-0.8c0.7-0.1,1.4-0.3,2.3-1.2s1-1.6,1.2-2.3c0.1-0.6,0.2-1,0.8-1.6c0.6-0.6,1-0.7,1.6-0.8
		c0.7-0.1,1.4-0.3,2.3-1.2s1-1.6,1.2-2.3c0.1-0.6,0.2-1,0.8-1.6s1-0.7,1.6-0.8c0.7-0.1,1.4-0.3,2.3-1.2s1-1.6,1.2-2.3
		c0.1-0.6,0.2-1,0.8-1.6s1-0.7,1.6-0.8c0.7-0.1,1.4-0.3,2.3-1.2s1-1.6,1.2-2.3c0.1-0.6,0.2-1,0.8-1.6c0.6-0.6,1-0.7,1.6-0.8
		c0.7-0.1,1.4-0.3,2.3-1.2c0.9-0.9,1-1.6,1.2-2.3c0.1-0.6,0.2-1,0.8-1.6c0.4-0.4,0.7-0.6,1.1-0.7l0,0c0.9,0.9,2.3,0.9,3.1,0l7.9-7.9
		c0.9-0.9,0.9-2.3,0-3.1l-0.2-0.2c0.6-0.5,1-0.6,1.5-0.8c0.7-0.1,1.4-0.3,2.3-1.2c0.9-0.9,1-1.6,1.2-2.3c0.1-0.6,0.2-1,0.8-1.6
		s1-0.7,1.6-0.8c0.6-0.1,1.4-0.3,2.2-1.1l0,0l0,0c0,0,0,0,0.1-0.1l0,0c1.4-1.5,1.4-3.9,0-5.3s-3.8-1.4-5.3,0l0,0l-9.1,9.1
		c-0.8-0.3-1.7-0.1-2.3,0.5l-7.9,7.9c-0.6,0.6-0.8,1.5-0.5,2.3l-36.4,36.4L275.9,445.6z M309.2,411.5c-0.1,0.6-0.2,1-0.8,1.6
		c-0.6,0.6-1,0.7-1.6,0.8c-0.7,0.1-1.4,0.3-2.3,1.2c-0.9,0.9-1,1.6-1.2,2.3c-0.1,0.6-0.2,1-0.8,1.6c-0.6,0.6-1,0.7-1.6,0.8
		c-0.7,0.1-1.4,0.3-2.3,1.2c-0.9,0.9-1,1.6-1.2,2.3c-0.1,0.6-0.2,1-0.8,1.6c-0.6,0.6-1,0.7-1.6,0.8c-0.7,0.1-1.4,0.3-2.3,1.2
		c-0.9,0.9-1,1.6-1.2,2.3c-0.1,0.6-0.2,1-0.8,1.6c-0.6,0.6-1,0.7-1.6,0.8c-0.6,0.1-1.4,0.3-2.3,1.2c-0.9,0.9-1,1.6-1.2,2.3
		c-0.1,0.6-0.2,1-0.8,1.6s-1,0.7-1.6,0.8c-0.7,0.1-1.4,0.3-2.3,1.2s-1,1.6-1.2,2.3c-0.1,0.6-0.2,1-0.8,1.6s-1,0.7-1.6,0.8
		c-0.4,0.1-0.8,0.2-1.2,0.4l-2.7-2.7l35.3-35.2l2.6,2.6c-0.3,0.2-0.6,0.4-1,0.7C309.5,410.1,309.3,410.9,309.2,411.5z M331.9,386.1
		c0.9,0.9,0.9,2.4,0,3.4l0,0c0,0,0,0-0.1,0.1c-0.6,0.5-1,0.6-1.6,0.8c-0.7,0.1-1.4,0.3-2.3,1.2c-0.9,0.9-1,1.6-1.2,2.3
		c-0.1,0.6-0.2,1-0.8,1.6c-0.6,0.6-1,0.7-1.6,0.8s-1.4,0.3-2.2,1.1l-2.4-2.5l8.8-8.8C329.5,385.2,331,385.2,331.9,386.1z"/>
</g>
</svg>
