<svg width="100%" version="1.1" id="Layer_1" xmlns="http://www.w3.org/2000/svg" xmlns:xlink="http://www.w3.org/1999/xlink" x="0px" y="0px"
	 viewBox="251.8 391 91.8 59.9" style="enable-background:new 251.8 391 91.8 59.9;" xml:space="preserve">
<path d="M280.9,428.7c-0.6,0-1.2-0.4-1.4-1c-1.6-4.4-4.4-7.7-7.8-9.2c-0.8-0.3-1.1-1.2-0.8-2s1.2-1.1,2-0.8
	c4.1,1.8,7.6,5.8,9.4,10.9c0.3,0.8-0.1,1.6-0.9,1.9C281.2,428.7,281,428.7,280.9,428.7z"/>
<path d="M275.6,437.2h-18.7c-1.5,0-2.9-0.7-3.9-1.8c-1-1.2-1.4-2.7-1.1-4.2c1.2-7.1,5.2-13,10.6-15.4c0.8-0.3,1.6,0,2,0.8
	c0.3,0.8,0,1.6-0.8,2c-4.4,2-7.8,7-8.8,13.1c-0.1,0.6,0.1,1.3,0.5,1.8c0.4,0.5,1,0.8,1.6,0.8h18.7c0.8,0,1.5,0.7,1.5,1.5
	S276.4,437.2,275.6,437.2z"/>
<path d="M267.6,419.9c-5.9,0-10.6-4.8-10.6-10.6c0-5.9,4.8-10.6,10.6-10.6c5.9,0,10.6,4.8,10.6,10.6
	C278.3,415.1,273.5,419.9,267.6,419.9z M267.6,401.6c-4.2,0-7.6,3.4-7.6,7.6c0,4.2,3.4,7.6,7.6,7.6s7.6-3.4,7.6-7.6
	C275.3,405,271.8,401.6,267.6,401.6z"/>
<path d="M314.4,428.7c-0.2,0-0.3,0-0.5-0.1c-0.8-0.3-1.2-1.1-0.9-1.9c1.9-5.1,5.3-9.1,9.4-10.9c0.8-0.3,1.6,0,2,0.8
	c0.3,0.8,0,1.6-0.8,2c-3.4,1.5-6.2,4.8-7.8,9.2C315.6,428.3,315,428.7,314.4,428.7z"/>
<path d="M338.4,437.2h-18.7c-0.8,0-1.5-0.7-1.5-1.5s0.7-1.5,1.5-1.5h18.7c0.6,0,1.2-0.3,1.6-0.8c0.4-0.5,0.6-1.1,0.5-1.8
	c-1-6.2-4.4-11.2-8.8-13.1c-0.8-0.3-1.1-1.2-0.8-2c0.3-0.8,1.2-1.1,2-0.8c5.3,2.4,9.4,8.3,10.6,15.4c0.3,1.5-0.2,3-1.2,4.2
	C341.3,436.5,339.9,437.2,338.4,437.2z"/>
<path d="M327.6,419.9c-5.9,0-10.6-4.8-10.6-10.6c0-5.9,4.8-10.6,10.6-10.6s10.6,4.8,10.6,10.6C338.3,415.1,333.5,419.9,327.6,419.9z
	 M327.6,401.6c-4.2,0-7.6,3.4-7.6,7.6c0,4.2,3.4,7.6,7.6,7.6s7.6-3.4,7.6-7.6C335.3,405,331.8,401.6,327.6,401.6z"/>
<path d="M314.8,450.8h-34.4c-2.2,0-4.2-0.9-5.6-2.6c-1.4-1.7-2-3.8-1.6-6c1.9-11.2,8.2-20.3,16.4-24c0.8-0.3,1.6,0,2,0.8
	c0.3,0.8,0,1.6-0.8,2c-7.4,3.2-13,11.6-14.7,21.7c-0.2,1.3,0.1,2.6,1,3.6c0.8,1,2,1.5,3.3,1.5h34.4c1.3,0,2.5-0.6,3.3-1.5
	c0.8-1,1.2-2.3,1-3.6c-1.7-10.1-7.3-18.4-14.6-21.7c-0.8-0.3-1.1-1.2-0.8-2c0.3-0.8,1.2-1.1,2-0.8c8.2,3.7,14.5,12.8,16.4,23.9
	c0.4,2.1-0.2,4.3-1.6,6C319,449.9,317,450.8,314.8,450.8z"/>
<path d="M297.6,423.1c-8.9,0-16.1-7.2-16.1-16.1c0-8.9,7.2-16.1,16.1-16.1c8.9,0,16.1,7.2,16.1,16.1
	C313.7,415.9,306.5,423.1,297.6,423.1z M297.6,394c-7.2,0-13.1,5.9-13.1,13.1s5.9,13.1,13.1,13.1s13.1-5.9,13.1-13.1
	S304.9,394,297.6,394z"/>
</svg>
